<?xml version="1.0" encoding="utf-8"?>
<!-- Generator: Adobe Illustrator 17.1.0, SVG Export Plug-In . SVG Version: 6.00 Build 0)  -->
<!DOCTYPE svg PUBLIC "-//W3C//DTD SVG 1.1//EN" "http://www.w3.org/Graphics/SVG/1.1/DTD/svg11.dtd">
<svg version="1.1" id="Layer_1" xmlns="http://www.w3.org/2000/svg" xmlns:xlink="http://www.w3.org/1999/xlink" x="0px" y="0px"
	 viewBox="0 0 282.8 49.9" style="enable-background:new 0 0 282.8 49.9;" xml:space="preserve">
<style type="text/css">
	.st0{fill:#646464;}
</style>
<g>
	<polygon class="st0" points="236.2,0 222.6,0 222.6,0 222.6,27.7 199.4,0 187.3,0 187.3,49.9 200.8,49.9 200.8,22.1 224.1,49.9 
		236.2,49.9 236.2,12.1 248.9,12.1 248.9,49.9 263.9,49.9 263.9,12.1 277.4,12.1 282.8,0 	"/>
	<path class="st0" d="M165.4,0h-50.9c-0.2,0-0.4,0-0.6,0c-3.8,0-7,0.6-9.7,1.9c-2.6,1.3-4.6,2.9-5.9,5.1c-1.3,2.1-1.9,4.5-1.9,7.1
		c0,2.7,0.6,5.2,1.9,7.2c1.3,2,2.9,3.6,4.9,5c2,1.3,4.4,2.5,7,3.7c2.1,1,4.2,1.9,5.5,2.8c1,0.6,1.4,0.9,1.7,1.9
		c0.1,0.8,0.2,3.4-3.7,3.4H99.2L82.4,0h-1.9H68.9H67L44.7,49.9h14.9l3.3-7.9h10.9l3.7-9H66.7l8-19.2l15,36.1h14.9l0,0h9.2
		c0.1,0,0.1,0,0.2,0c3.6,0,6.8-0.6,9.6-1.8c2.8-1.2,4.9-2.9,6.5-5.1c1.6-2.2,2.3-4.8,2.3-7.9c0-2.7-0.6-5-1.9-6.8
		c-1.3-1.8-3-3.5-5.3-4.8c-2.2-1.4-5.2-3-9-4.7c-2.1-1-3.6-1.9-4.4-2.6c-0.7-0.6-1.1-1.5-1.2-2.3c0-1,0.5-2.9,3.8-2.9h24.3v38.9h15
		V11h11.6v38.9h15.1V0L165.4,0L165.4,0z"/>
	<polygon class="st0" points="45,0 29.9,33.1 14.9,0 0,0 22.2,49.9 22.3,49.9 37.6,49.9 37.6,49.9 59.9,0 	"/>
</g>
</svg>
